{
  "source": "C:\\Users\\Peter\\Desktop\\stuff\\MIUN\\quantitative_research\\video_compression\\videos\\HEVC_CLASS_B\\Kimono_1920x1080_24.y4m",
  "output": "C:\\Users\\Peter\\Desktop\\stuff\\MIUN\\quantitative_research\\video_compression\\compressed_videos\\HEVC_CLASS_B\\h264\\1.5\\Kimono_1920x1080_24_h264.mp4",
  "codec": "h264",
  "ok": "Input #0, yuv4mpegpipe, from 'C:\\Users\\Peter\\Desktop\\stuff\\MIUN\\quantitative_research\\video_compression\\videos\\HEVC_CLASS_B\\Kimono_1920x1080_24.y4m':\n  Duration: 00:00:10.00, start: 0.000000, bitrate: 597198 kb/s\n  Stream #0:0: Video: rawvideo (I420 / 0x30323449), yuv420p(progressive), 1920x1080, 24 fps, 24 tbr, 24 tbn\n[out#0/mp4 @ 0000026b6a5ca640] Codec AVOption b:a (set bitrate (in bits/s)) has not been used for any stream. The most likely reason is either wrong type (e.g. a video option with no video streams) or that it is a private option of some decoder which was not actually used for any stream.\nStream mapping:\n  Stream #0:0 -> #0:0 (rawvideo (native) -> h264 (libx264))\nPress [q] to stop, [?] for help\n[libx264 @ 0000026b6a5ccac0] using cpu capabilities: MMX2 SSE2Fast SSSE3 SSE4.2 AVX FMA3 BMI2 AVX2\n[libx264 @ 0000026b6a5ccac0] profile High, level 5.0, 4:2:0, 8-bit\n[libx264 @ 0000026b6a5ccac0] 264 - core 165 r3222 b35605a - H.264/MPEG-4 AVC codec - Copyleft 2003-2025 - http://www.videolan.org/x264.html - options: cabac=1 ref=5 deblock=1:0:0 analyse=0x3:0x113 me=hex subme=8 psy=1 psy_rd=1.00:0.00 mixed_ref=1 me_range=16 chroma_me=1 trellis=2 8x8dct=1 cqm=0 deadzone=21,11 fast_pskip=1 chroma_qp_offset=-2 threads=18 lookahead_threads=3 sliced_threads=0 nr=0 decimate=1 interlaced=0 bluray_compat=0 constrained_intra=0 bframes=3 b_pyramid=2 b_adapt=1 b_bias=0 direct=3 weightb=1 open_gop=0 weightp=2 keyint=250 keyint_min=24 scenecut=40 intra_refresh=0 rc_lookahead=50 rc=cbr mbtree=1 bitrate=1500 ratetol=1.0 qcomp=0.60 qpmin=0 qpmax=69 qpstep=4 vbv_maxrate=1500 vbv_bufsize=1500 nal_hrd=none filler=0 ip_ratio=1.40 aq=1:1.00\nOutput #0, mp4, to 'C:\\Users\\Peter\\Desktop\\stuff\\MIUN\\quantitative_research\\video_compression\\compressed_videos\\HEVC_CLASS_B\\h264\\1.5\\Kimono_1920x1080_24_h264.mp4':\n  Metadata:\n    encoder         : Lavf62.3.100\n  Stream #0:0: Video: h264 (avc1 / 0x31637661), yuv420p(tv, progressive), 1920x1080, q=2-31, 1500 kb/s, 24 fps, 12288 tbn\n    Metadata:\n      encoder         : Lavc62.11.100 libx264\n    Side data:\n      cpb: bitrate max/min/avg: 1500000/0/1500000 buffer size: 1500000 vbv_delay: N/A\nframe=    0 fps=0.0 q=0.0 size=       0KiB time=N/A bitrate=N/A speed=N/A elapsed=0:00:00.50    \nframe=    0 fps=0.0 q=0.0 size=       0KiB time=N/A bitrate=N/A speed=N/A elapsed=0:00:01.04    \nframe=   28 fps= 17 q=40.0 size=       0KiB time=00:00:01.00 bitrate=   0.4kbits/s speed=0.622x elapsed=0:00:01.60    \nframe=   52 fps= 24 q=40.0 size=     256KiB time=00:00:02.04 bitrate=1027.4kbits/s speed=0.951x elapsed=0:00:02.14    \nframe=   80 fps= 29 q=40.0 size=     256KiB time=00:00:02.95 bitrate= 709.0kbits/s speed=1.09x elapsed=0:00:02.72    \nframe=  108 fps= 33 q=39.0 size=     512KiB time=00:00:04.25 bitrate= 987.0kbits/s speed= 1.3x elapsed=0:00:03.27    \nframe=  133 fps= 34 q=40.0 size=     512KiB time=00:00:05.45 bitrate= 768.5kbits/s speed=1.41x elapsed=0:00:03.86    \nframe=  164 fps= 37 q=36.0 size=     768KiB time=00:00:06.75 bitrate= 932.1kbits/s speed=1.52x elapsed=0:00:04.44    \nframe=  201 fps= 40 q=35.0 size=    1024KiB time=00:00:08.04 bitrate=1043.2kbits/s speed=1.62x elapsed=0:00:04.97    \nframe=  234 fps= 42 q=-1.0 size=    1024KiB time=00:00:09.62 bitrate= 871.6kbits/s speed=1.74x elapsed=0:00:05.53    \n[mp4 @ 0000026b6a5cb740] Starting second pass: moving the moov atom to the beginning of the file\n[out#0/mp4 @ 0000026b6a5ca640] video:1312KiB audio:0KiB subtitle:0KiB other streams:0KiB global headers:0KiB muxing overhead: 0.278730%\nframe=  240 fps= 43 q=-1.0 Lsize=    1315KiB time=00:00:09.91 bitrate=1086.6kbits/s speed=1.76x elapsed=0:00:05.63    \n[libx264 @ 0000026b6a5ccac0] frame I:2     Avg QP:34.53  size: 48768\n[libx264 @ 0000026b6a5ccac0] frame P:60    Avg QP:37.04  size: 11782\n[libx264 @ 0000026b6a5ccac0] frame B:178   Avg QP:41.17  size:  3022\n[libx264 @ 0000026b6a5ccac0] consecutive B-frames:  0.8%  0.0%  2.5% 96.7%\n[libx264 @ 0000026b6a5ccac0] mb I  I16..4: 28.4% 67.0%  4.7%\n[libx264 @ 0000026b6a5ccac0] mb P  I16..4:  1.0%  2.1%  0.0%  P16..4: 38.9%  4.6%  3.5%  0.0%  0.0%    skip:49.8%\n[libx264 @ 0000026b6a5ccac0] mb B  I16..4:  0.0%  0.0%  0.0%  B16..8: 37.5%  0.6%  0.0%  direct: 0.1%  skip:61.7%  L0:38.4% L1:61.3% BI: 0.3%\n[libx264 @ 0000026b6a5ccac0] 8x8 transform intra:67.5% inter:88.6%\n[libx264 @ 0000026b6a5ccac0] direct mvs  spatial:94.4% temporal:5.6%\n[libx264 @ 0000026b6a5ccac0] coded y,uvDC,uvAC intra: 37.3% 34.1% 5.9% inter: 2.2% 2.1% 0.0%\n[libx264 @ 0000026b6a5ccac0] i16 v,h,dc,p: 26% 23%  8% 42%\n[libx264 @ 0000026b6a5ccac0] i8 v,h,dc,ddl,ddr,vr,hd,vl,hu:  6%  4%  7% 12% 17% 13% 17% 11% 15%\n[libx264 @ 0000026b6a5ccac0] i4 v,h,dc,ddl,ddr,vr,hd,vl,hu:  5%  4%  5% 13% 17% 12% 17%  8% 18%\n[libx264 @ 0000026b6a5ccac0] i8c dc,h,v,p: 55% 32%  9%  4%\n[libx264 @ 0000026b6a5ccac0] Weighted P-Frames: Y:0.0% UV:0.0%\n[libx264 @ 0000026b6a5ccac0] ref P L0: 57.3% 13.8% 19.4%  4.9%  4.6%\n[libx264 @ 0000026b6a5ccac0] ref B L0: 92.5%  6.0%  1.2%  0.3%\n[libx264 @ 0000026b6a5ccac0] ref B L1: 98.2%  1.8%\n[libx264 @ 0000026b6a5ccac0] kb/s:1073.98\n",
  "seconds": 5.82574462890625,
  "probe_out": {}
}